<svg width="117" height="21" viewBox="0 0 117 21" fill="none" xmlns="http://www.w3.org/2000/svg">
<path d="M10.0953 20.2223C8.99474 20.2223 7.90479 20.0953 6.82542 19.8413C5.76722 19.5873 4.75134 19.217 3.77779 18.7302C2.80424 18.2223 1.9471 17.5556 1.20635 16.7302C0.465612 15.9048 0.063492 14.9207 0 13.7778V12.4445V11.9683C0 11.3757 0.211641 10.8889 0.634922 10.5079C1.07937 10.1058 1.59789 9.90483 2.19048 9.90483C3.46033 10.0106 4.14816 10.6984 4.25398 11.9683V12.7937C4.29631 13.4498 4.5397 14 4.98414 14.4445C5.44975 14.8678 5.95769 15.2064 6.50796 15.4603C7.07939 15.7143 7.6614 15.9048 8.254 16.0318C8.86776 16.1588 9.48149 16.2223 10.0953 16.2223C10.709 16.2223 11.3122 16.1588 11.9048 16.0318C12.5186 15.9048 13.1006 15.7143 13.6509 15.4603C14.2223 15.2064 14.7302 14.8678 15.1747 14.4445C15.6403 14 15.8943 13.4498 15.9366 12.7937V2.31747C15.9366 1.72487 16.1482 1.2381 16.5715 0.857142C17.0159 0.455028 17.5345 0.253969 18.1271 0.253969C19.3969 0.359789 20.0953 1.04762 20.2223 2.31747V12.4445V13.7778C20.1588 14.9207 19.7461 15.9048 18.9842 16.7302C18.2435 17.5556 17.3863 18.2223 16.4128 18.7302C15.4392 19.217 14.4128 19.5873 13.3334 19.8413C12.2752 20.0953 11.1958 20.2223 10.0953 20.2223ZM31.4604 14.5715C31.4604 13.9789 31.6615 13.4815 32.0636 13.0794C32.4869 12.6561 32.9948 12.4445 33.5874 12.4445H38.4446L37.6192 10.0952C37.2806 9.22755 36.942 8.41273 36.6033 7.65082C36.2859 6.86775 35.9155 6.15875 35.4922 5.52383C35.1113 4.88891 34.6774 4.55028 34.1906 4.50795C33.6827 4.55028 33.2277 4.88891 32.8255 5.52383C32.4234 6.15875 32.053 6.86775 31.7144 7.65082C31.397 8.41273 31.0689 9.22755 30.7303 10.0952L27.7144 18.3492C27.5028 18.7937 27.2276 19.1641 26.889 19.4604C26.5715 19.7355 26.0848 19.8731 25.4287 19.8731C24.8149 19.8731 24.307 19.6614 23.9049 19.2381C23.5239 18.8149 23.3546 18.3069 23.3969 17.7143C23.4181 17.4392 23.4816 17.1852 23.5874 16.9524L27.0795 7.93654C28.053 5.56616 29.0266 3.65081 30.0001 2.19048C30.9525 0.751322 32.3493 0.021164 34.1906 0C36.0107 0.021164 37.397 0.751322 38.3494 2.19048C39.3229 3.60848 40.2965 5.52383 41.27 7.93654L44.7621 16.9524C44.8679 17.1852 44.9314 17.4392 44.9526 17.7143C44.9949 18.3069 44.815 18.8149 44.4129 19.2381C44.0319 19.6614 43.5346 19.8731 42.9208 19.8731C42.2224 19.8731 41.7039 19.7355 41.3652 19.4604C41.0478 19.1641 40.7832 18.7937 40.5716 18.3492L39.9684 16.6984H33.5874C32.9948 16.6984 32.4975 16.4868 32.0954 16.0635C31.6721 15.6614 31.4604 15.164 31.4604 14.5715ZM47.524 2.8889C47.524 2.2963 47.7251 1.79895 48.1272 1.39683C48.5505 0.973552 49.0584 0.761912 49.651 0.761912H68.1273C68.7199 0.761912 69.2278 0.962962 69.6511 1.36508C70.0532 1.78836 70.2543 2.2963 70.2543 2.8889C70.2543 3.48149 70.0426 3.98943 69.6193 4.41271C69.2172 4.81483 68.7199 5.01589 68.1273 5.01589H61.0479V17.8731C60.9209 19.1429 60.2225 19.8307 58.9526 19.9366C58.36 19.9366 57.8415 19.7461 57.3971 19.3651C56.9738 18.963 56.7621 18.4656 56.7621 17.8731V5.01589H49.651C49.0584 5.01589 48.561 4.80425 48.1589 4.38097C47.7356 3.97885 47.524 3.48149 47.524 2.8889ZM90.6353 0.761912C91.7147 0.783072 92.6776 1.1217 93.5242 1.77778C94.3707 2.43387 95.048 3.21694 95.5559 4.127C96.085 5.03705 96.4766 6.00002 96.7305 7.0159C96.9845 8.03178 97.1115 9.06882 97.1115 10.127C97.1115 11.5238 96.8893 12.8995 96.4448 14.254C96.0215 15.5873 95.3125 16.7725 94.3178 17.8096C93.3443 18.8466 92.1168 19.4075 90.6353 19.4921H79.5559C78.0744 19.4286 76.8363 18.8783 75.8416 17.8413C74.8469 16.8043 74.1379 15.6085 73.7146 14.254C73.3125 12.8995 73.1114 11.5238 73.1114 10.127C73.1114 8.73019 73.323 7.36511 73.7463 6.03177C74.1696 4.67726 74.868 3.48149 75.8416 2.44445C76.8363 1.38625 78.0744 0.825402 79.5559 0.761912H80.1591H90.0321H90.6353ZM89.5559 15.2381C90.3601 15.1958 91.0268 14.8995 91.5559 14.3492C92.1062 13.7778 92.4977 13.1217 92.7305 12.381C92.9633 11.6402 93.0797 10.8889 93.0797 10.127C93.0797 9.36511 92.9528 8.62437 92.6988 7.90479C92.466 7.16405 92.085 6.50796 91.5559 5.93653C91.0268 5.3651 90.3601 5.05822 89.5559 5.01589H80.54C79.7358 5.05822 79.0691 5.3651 78.54 5.93653C78.0109 6.50796 77.6194 7.16405 77.3654 7.90479C77.1326 8.62437 77.0162 9.36511 77.0162 10.127C77.0162 10.8889 77.1326 11.6402 77.3654 12.381C77.5982 13.1217 77.9791 13.7778 78.5083 14.3492C79.0585 14.8995 79.7358 15.1958 80.54 15.2381H89.5559Z" fill="#129494"/>
<path d="M114.75 8.70096C115.75 9.27831 115.75 10.7217 114.75 11.299L105.75 16.4952C104.75 17.0725 103.5 16.3509 103.5 15.1962L103.5 4.80385C103.5 3.64915 104.75 2.92746 105.75 3.50481L114.75 8.70096Z" fill="#1AC4C4"/>
</svg>
